<svg xmlns="http://www.w3.org/2000/svg" viewBox="0 0 400 18" preserveAspectRatio="none"><path d="M0.00,8.39 L16.67,5.66 L33.33,3.94 L50.00,4.20 L66.67,2.55 L83.33,2.72 L100.00,1.06 L116.67,1.96 L133.33,2.73 L150.00,1.96 L166.67,2.97 L183.33,2.82 L200.00,1.59 L216.67,0.70 L233.33,2.51 L250.00,1.01 L266.67,0.73 L283.33,2.49 L300.00,2.84 L316.67,3.00 L333.33,3.65 L350.00,2.52 L366.67,3.41 L383.33,5.44 L400.00,10.55 L400.00,9.35 L383.33,11.59 L366.67,12.56 L350.00,14.59 L333.33,16.61 L316.67,15.57 L300.00,15.37 L283.33,15.65 L266.67,15.44 L250.00,16.31 L233.33,16.75 L216.67,16.28 L200.00,16.26 L183.33,16.67 L166.67,16.85 L150.00,15.30 L133.33,17.12 L116.67,15.60 L100.00,15.17 L83.33,15.45 L66.67,14.33 L50.00,13.68 L33.33,12.44 L16.67,10.83 L0.00,7.67 Z" fill="currentColor"/></svg>